<svg width="173" height="173" viewBox="0 0 173 173" fill="none" xmlns="http://www.w3.org/2000/svg">
<circle cx="85.0391" cy="86.1143" r="44" fill="#FF85D2"/>
<path d="M38.8777 47.3904C32.6684 54.9666 28.375 63.9266 26.3606 73.5128C24.3461 83.099 24.6699 93.0293 27.3045 102.464C29.9391 111.899 34.8071 120.56 41.4966 127.715C48.1862 134.871 56.5007 140.31 65.7368 143.573C74.9729 146.836 84.8589 147.827 94.5589 146.462C104.259 145.097 113.487 141.415 121.464 135.73C129.44 130.044 135.93 122.521 140.385 113.797C144.839 105.073 147.127 95.4039 147.055 85.6086L139.613 85.6634C139.677 94.2637 137.668 102.753 133.757 110.413C129.846 118.072 124.148 124.678 117.144 129.67C110.141 134.662 102.038 137.894 93.5216 139.093C85.0051 140.291 76.3251 139.422 68.2157 136.557C60.1064 133.692 52.8063 128.916 46.9329 122.633C41.0594 116.351 36.7853 108.746 34.4721 100.462C32.1589 92.1788 31.8746 83.4599 33.6433 75.0432C35.412 66.6265 39.1816 58.7595 44.6334 52.1077L38.8777 47.3904Z" fill="#FFD885"/>
<path d="M101.579 44.4038C95.0295 41.9761 87.9913 41.1614 81.06 42.0288C74.1287 42.8961 67.5082 45.4199 61.7585 49.3867C56.0087 53.3536 51.2989 58.6467 48.0272 64.8186C44.7556 70.9904 43.0184 77.8594 42.9625 84.8445C42.9067 91.8296 44.5339 98.7255 47.7065 104.949C50.8791 111.172 55.5037 116.54 61.1893 120.598C66.8749 124.656 73.4542 127.286 80.3708 128.264C87.2873 129.242 94.3377 128.54 100.926 126.217L98.1615 118.377C92.8325 120.256 87.1294 120.824 81.5346 120.033C75.9397 119.242 70.6177 117.115 66.0186 113.832C61.4194 110.55 57.6785 106.208 55.1122 101.173C52.5459 96.1394 51.2296 90.5613 51.2748 84.9109C51.3199 79.2606 52.7252 73.7042 55.3716 68.7118C58.0181 63.7194 61.8279 59.4377 66.479 56.2289C71.13 53.0201 76.4853 50.9785 82.0921 50.277C87.6989 49.5754 93.3922 50.2343 98.6904 52.1981L101.579 44.4038Z" fill="#FFD885"/>
<path d="M116.568 85.6705C116.994 81.1138 116.316 76.5215 114.592 72.2821C112.867 68.0427 110.148 64.2809 106.662 61.3149C103.177 58.3488 99.0283 56.2658 94.5677 55.2419C90.1071 54.218 85.4655 54.2834 81.0355 55.4325C76.6055 56.5817 72.5174 58.7808 69.117 61.8438C65.7165 64.9069 63.1037 68.7438 61.4996 73.0301C59.8955 77.3164 59.3472 81.9259 59.9011 86.4689C60.455 91.0118 62.0949 95.3546 64.6819 99.1299L70.0731 95.4355C68.0793 92.526 66.8155 89.1791 66.3886 85.6779C65.9617 82.1767 66.3843 78.6242 67.6205 75.3208C68.8568 72.0175 70.8704 69.0604 73.4911 66.6998C76.1118 64.3391 79.2624 62.6443 82.6765 61.7587C86.0906 60.873 89.6678 60.8226 93.1055 61.6117C96.5433 62.4008 99.7404 64.0062 102.427 66.2921C105.113 68.578 107.209 71.4771 108.538 74.7444C109.866 78.0116 110.389 81.5508 110.061 85.0626L116.568 85.6705Z" fill="#FFD885"/>
</svg>
