<svg width="393" height="394" viewBox="0 0 393 394" fill="none" xmlns="http://www.w3.org/2000/svg">
<path d="M134.613 104.485C119.71 114.41 107.417 127.778 98.7725 143.458C90.1282 159.138 85.3873 176.669 84.9506 194.569C84.5138 212.469 88.3942 230.21 96.2636 246.293C104.133 262.376 115.76 276.328 130.16 286.967C144.561 297.607 161.313 304.622 178.998 307.419C196.683 310.217 214.782 308.714 231.763 303.038C248.745 297.362 264.11 287.68 276.558 274.811C289.007 261.941 298.173 246.263 303.282 229.103L290.245 225.221C285.76 240.289 277.711 254.054 266.781 265.353C255.851 276.652 242.361 285.153 227.451 290.137C212.541 295.12 196.651 296.44 181.123 293.984C165.595 291.528 150.888 285.368 138.244 276.027C125.6 266.685 115.391 254.436 108.482 240.315C101.573 226.194 98.1658 210.617 98.5492 194.901C98.9326 179.185 103.095 163.792 110.685 150.025C118.275 136.258 129.068 124.521 142.153 115.807L134.613 104.485Z" fill="#FFD885"/>
<path d="M153.132 130.369C142.507 137.445 133.742 146.976 127.578 158.156C121.415 169.336 118.035 181.836 117.723 194.599C117.412 207.361 120.179 220.011 125.789 231.478C131.4 242.945 139.69 252.893 149.958 260.479C160.226 268.065 172.17 273.067 184.779 275.061C197.389 277.056 210.293 275.984 222.401 271.937C234.509 267.89 245.464 260.987 254.34 251.811C263.216 242.635 269.752 231.457 273.395 219.221L258.834 214.887C255.888 224.784 250.601 233.826 243.421 241.249C236.241 248.671 227.38 254.255 217.585 257.529C207.791 260.803 197.353 261.669 187.153 260.056C176.953 258.443 167.291 254.397 158.986 248.26C150.68 242.124 143.974 234.077 139.435 224.801C134.897 215.525 132.659 205.293 132.91 194.969C133.162 184.645 135.897 174.534 140.882 165.491C145.868 156.447 152.958 148.737 161.553 143.013L153.132 130.369Z" fill="#FFD885"/>
<path d="M172.415 149.489C165.398 154.162 159.61 160.456 155.539 167.839C151.469 175.222 149.237 183.477 149.031 191.905C148.826 200.333 150.653 208.686 154.358 216.259C158.063 223.832 163.538 230.401 170.318 235.411C177.099 240.42 184.987 243.723 193.314 245.041C201.641 246.358 210.163 245.65 218.158 242.977C226.154 240.305 233.389 235.746 239.25 229.687C245.112 223.627 249.428 216.245 251.833 208.165L240.295 204.73C238.441 210.957 235.114 216.646 230.597 221.316C226.08 225.986 220.504 229.5 214.342 231.559C208.18 233.619 201.612 234.164 195.195 233.149C188.777 232.134 182.698 229.589 177.473 225.728C172.247 221.867 168.028 216.804 165.172 210.968C162.316 205.132 160.908 198.694 161.067 192.198C161.225 185.703 162.946 179.341 166.082 173.651C169.219 167.961 173.68 163.11 179.088 159.509L172.415 149.489Z" fill="#FFD885"/>
</svg>
