<svg width="345" height="365" viewBox="0 0 345 365" fill="none" xmlns="http://www.w3.org/2000/svg">
<circle cx="175.798" cy="191.775" r="97.5" fill="#D2FF85"/>
<circle cx="260.798" cy="241.775" r="28.5" fill="#FF85D2"/>
<path d="M46.3591 249.138C28.6665 218.469 23.8794 182.023 33.0507 147.819C42.2221 113.615 64.6007 84.4536 95.2635 66.7504C125.926 49.0472 162.362 44.2523 196.554 53.4204C230.747 62.5886 259.895 84.9689 277.588 115.638L216.313 151.015C207.997 136.601 194.297 126.082 178.226 121.773C162.156 117.464 145.031 119.717 130.62 128.038C116.208 136.358 105.69 150.064 101.379 166.141C97.0689 182.217 99.3188 199.346 107.634 213.761L46.3591 249.138Z" fill="#B285FF"/>
</svg>
