<svg width="315" height="315" viewBox="0 0 315 315" fill="none" xmlns="http://www.w3.org/2000/svg">
<path d="M71.0635 86.6225C59.7138 100.471 51.866 116.849 48.1839 134.371C44.5018 151.893 45.0936 170.044 49.9093 187.29C54.725 204.535 63.623 220.367 75.8507 233.446C88.0784 246.526 103.276 256.468 120.158 262.432C137.041 268.397 155.111 270.208 172.842 267.712C190.572 265.217 207.44 258.488 222.02 248.095C236.6 237.702 248.463 223.951 256.605 208.004C264.747 192.058 268.929 174.385 268.798 156.48L255.195 156.58C255.311 172.301 251.639 187.818 244.49 201.819C237.341 215.82 226.926 227.893 214.125 237.018C201.323 246.143 186.513 252.051 170.946 254.242C155.378 256.433 139.512 254.843 124.69 249.607C109.867 244.37 96.5233 235.64 85.7874 224.157C75.0514 212.673 67.239 198.772 63.0108 183.631C58.7826 168.49 58.2629 152.553 61.4959 137.168C64.7288 121.784 71.6192 107.404 81.5842 95.245L71.0635 86.6225Z" fill="#FFD885"/>
<path d="M96.6574 106.05C88.565 115.924 82.9695 127.602 80.3441 140.095C77.7187 152.589 78.1407 165.531 81.5743 177.827C85.008 190.122 91.3523 201.411 100.071 210.736C108.789 220.062 119.625 227.151 131.662 231.404C143.699 235.656 156.584 236.948 169.226 235.168C181.867 233.389 193.895 228.591 204.29 221.181C214.686 213.771 223.144 203.966 228.949 192.596C234.755 181.226 237.737 168.625 237.643 155.859L222.451 155.971C222.527 166.298 220.115 176.491 215.419 185.688C210.723 194.885 203.881 202.816 195.472 208.81C187.063 214.805 177.334 218.685 167.108 220.125C156.882 221.564 146.46 220.52 136.723 217.08C126.986 213.64 118.221 207.905 111.168 200.362C104.116 192.818 98.9838 183.687 96.2063 173.741C93.4289 163.794 93.0875 153.325 95.2112 143.219C97.3349 133.113 101.861 123.667 108.407 115.68L96.6574 106.05Z" fill="#FFD885"/>
<path d="M120.876 118.256C115.532 124.776 111.837 132.488 110.103 140.738C108.37 148.989 108.648 157.535 110.916 165.655C113.183 173.775 117.373 181.23 123.13 187.388C128.888 193.547 136.044 198.228 143.993 201.037C151.942 203.845 160.45 204.698 168.799 203.523C177.147 202.347 185.09 199.179 191.955 194.286C198.82 189.392 204.405 182.917 208.239 175.409C212.073 167.9 214.042 159.579 213.98 151.149L201.941 151.237C201.989 157.734 200.471 164.148 197.517 169.934C194.562 175.721 190.257 180.711 184.967 184.482C179.676 188.254 173.555 190.695 167.121 191.601C160.687 192.507 154.129 191.849 148.003 189.685C141.877 187.521 136.362 183.913 131.925 179.167C127.488 174.42 124.259 168.675 122.511 162.417C120.764 156.159 120.549 149.573 121.885 143.214C123.221 136.856 126.069 130.913 130.188 125.887L120.876 118.256Z" fill="#FFD885"/>
</svg>
