<svg width="137" height="137" viewBox="0 0 137 137" fill="none" xmlns="http://www.w3.org/2000/svg">
<circle cx="67.1377" cy="70.3447" r="40.5" fill="#B285FF"/>
<path d="M30.911 37.6788C25.9742 43.7025 22.5605 50.8264 20.9589 58.4483C19.3573 66.0701 19.6147 73.9655 21.7094 81.4668C23.8042 88.968 27.6746 95.8545 32.9933 101.544C38.3121 107.233 44.9228 111.558 52.2662 114.152C59.6097 116.747 67.4699 117.534 75.1822 116.449C82.8944 115.363 90.2318 112.436 96.5738 107.916C102.916 103.395 108.076 97.4136 111.617 90.4772C115.159 83.5408 116.978 75.8535 116.921 68.0654L111.004 68.109C111.055 74.9469 109.457 81.6964 106.348 87.7866C103.238 93.8768 98.7077 99.1285 93.1394 103.098C87.5711 107.067 81.1289 109.637 74.3575 110.59C67.5861 111.543 60.6848 110.851 54.2372 108.573C47.7896 106.295 41.9855 102.498 37.3156 97.5031C32.6457 92.5079 29.2474 86.4615 27.4083 79.8754C25.5691 73.2892 25.3431 66.357 26.7493 59.665C28.1555 52.9731 31.1527 46.7182 35.4873 41.4294L30.911 37.6788Z" fill="#D2FF85"/>
<path d="M88.3825 39.701C83.8631 36.4966 78.6385 34.4278 73.1505 33.6695C67.6626 32.9111 62.0727 33.4856 56.8537 35.3442C51.6346 37.2029 46.94 40.2911 43.1667 44.3476C39.3935 48.4041 36.6527 53.3097 35.1761 58.6494C33.6995 63.9891 33.5305 69.6059 34.6835 75.0247C35.8365 80.4435 38.2775 85.505 41.8001 89.781C45.3226 94.057 49.8232 97.4218 54.9211 99.5907C60.0189 101.76 65.5642 102.669 71.0878 102.242L70.5795 95.669C66.1114 96.0145 61.6258 95.2789 57.5021 93.5243C53.3784 91.7698 49.7379 89.048 46.8885 85.5891C44.039 82.1302 42.0645 78.036 41.1318 73.6527C40.1992 69.2694 40.3358 64.7259 41.5303 60.4066C42.7247 56.0872 44.9418 52.1191 47.994 48.8377C51.0462 45.5564 54.8437 43.0583 59.0654 41.5548C63.2871 40.0513 67.8088 39.5866 72.2481 40.2001C76.6874 40.8135 80.9136 42.487 84.5694 45.079L88.3825 39.701Z" fill="#D2FF85"/>
<path d="M87.9923 78.6783C90.0821 75.7308 91.4314 72.3235 91.9259 68.7444C92.4205 65.1653 92.0459 61.5197 90.8337 58.116C89.6215 54.7123 87.6075 51.6505 84.9619 49.1897C82.3163 46.7289 79.1171 44.9414 75.6346 43.9784C72.1522 43.0154 68.4891 42.9052 64.9551 43.6572C61.4211 44.4091 58.1202 46.0011 55.3315 48.2984C52.5428 50.5958 50.3483 53.5309 48.9338 56.8556C47.5192 60.1803 46.9261 63.7968 47.2047 67.3991L52.3489 67.0014C52.1343 64.2251 52.5914 61.4379 53.6815 58.8756C54.7717 56.3133 56.4629 54.0513 58.6121 52.2808C60.7613 50.5102 63.3053 49.2833 66.0289 48.7038C68.7525 48.1243 71.5756 48.2092 74.2595 48.9514C76.9433 49.6936 79.4089 51.0712 81.4478 52.9677C83.4867 54.8642 85.0389 57.2238 85.9731 59.847C86.9073 62.4702 87.196 65.2798 86.8149 68.0381C86.4337 70.7965 85.3939 73.4225 83.7833 75.694L87.9923 78.6783Z" fill="#D2FF85"/>
</svg>
