<svg width="102" height="24" viewBox="0 0 102 24" fill="none" xmlns="http://www.w3.org/2000/svg">
<g clip-path="url(#clip0_0_82)">
<path fill-rule="evenodd" clip-rule="evenodd" d="M6 2V25H0V2H6Z" fill="#FFEFE4"/>
<path fill-rule="evenodd" clip-rule="evenodd" d="M9 2H21.5926C25.6836 2 29 5.43248 29 9.66667C29 13.9009 25.6836 17.3333 21.5926 17.3333H14.9259V25H9V2ZM14.9259 11.2H21.5926C22.4108 11.2 23.0741 10.5135 23.0741 9.66667C23.0741 8.81984 22.4108 8.13333 21.5926 8.13333H14.9259V11.2Z" fill="#FFEFE4"/>
<path fill-rule="evenodd" clip-rule="evenodd" d="M52.0689 2V13.8833C52.0689 16.6355 54.2765 18.8667 56.9999 18.8667C59.7232 18.8667 61.931 16.6355 61.931 13.8833V2H68V13.8833C68 20.0229 63.0751 25 56.9999 25C50.9248 25 46 20.0229 46 13.8833V2H52.0689Z" fill="#FFEFE4"/>
<path fill-rule="evenodd" clip-rule="evenodd" d="M32 12.7333C32 6.80547 36.701 2 42.5 2H44V8.13333H42.5C40.0147 8.13333 38 10.1928 38 12.7333V13.5C38 19.8513 32.9632 25 26.75 25H26V18.8667H26.75C29.6495 18.8667 32 16.4639 32 13.5V12.7333Z" fill="#FFEFE4"/>
<path d="M102 2.5C102 3.88071 100.881 5 99.4997 5C98.119 5 97 3.88071 97 2.5C97 1.11929 98.119 0 99.4997 0C100.881 0 102 1.11929 102 2.5Z" fill="#FFEFE4"/>
<path d="M74.178 24L77.0456 12.1759L79.1776 19.2893C80.4485 23.532 86.5515 23.532 87.823 19.2893L89.9544 12.1759L92.822 24H99L94.4913 5.40728C93.419 0.985781 87.0916 0.822072 85.7847 5.18208L83.5003 12.8063L81.2153 5.18208C79.909 0.822097 73.581 0.985758 72.5087 5.40727L68 24H74.178Z" fill="#FFEFE4"/>
</g>
<defs>
<clipPath id="clip0_0_82">
<rect width="102" height="24" fill="white"/>
</clipPath>
</defs>
</svg>
