<svg width="140" height="24" viewBox="0 0 140 24" fill="none" xmlns="http://www.w3.org/2000/svg">
<g clip-path="url(#clip0_0_79)">
<path d="M12.4925 24C19.4004 24 25 18.6276 25 12V3.6C25 2.64522 24.6047 1.72955 23.901 1.05442C23.1973 0.379285 22.2429 0 21.2477 0L13.1179 0V5.2644C13.1179 6.4656 13.1942 7.71 13.8508 8.7324C14.3209 9.46513 14.9498 10.0923 15.6947 10.5713C16.4397 11.0503 17.2833 11.37 18.1684 11.5086L18.4079 11.5458C18.5067 11.5782 18.5924 11.6394 18.6531 11.7208C18.7138 11.8023 18.7464 11.8999 18.7464 12C18.7464 12.1001 18.7138 12.1977 18.6531 12.2792C18.5924 12.3606 18.5067 12.4218 18.4079 12.4542L18.1684 12.4914C16.8752 12.6941 15.6811 13.2813 14.7546 14.1703C13.828 15.0592 13.2159 16.2049 13.0047 17.4456L12.9659 17.6754C12.9322 17.7701 12.8684 17.8524 12.7835 17.9106C12.6986 17.9688 12.5968 18.0002 12.4925 18.0002C12.3881 18.0002 12.2864 17.9688 12.2015 17.9106C12.1166 17.8524 12.0528 17.7701 12.0191 17.6754L11.9803 17.4456C11.8358 16.5965 11.5026 15.7871 11.0033 15.0723C10.504 14.3576 9.85039 13.7542 9.0867 13.3032C8.02106 12.6732 6.72403 12.6 5.47203 12.6H0C0.327071 18.9486 5.79473 24 12.4925 24Z" fill="#FFEFE4"/>
<path d="M0 11.2973H5.58345C6.85745 11.2973 8.17727 11.2248 9.26164 10.6004C10.1093 10.1124 10.8228 9.44574 11.3451 8.65373C12.0133 7.64054 12.0909 6.40735 12.0909 5.21697V0H3.81818C2.80554 0 1.83437 0.375868 1.11832 1.04492C0.402272 1.71397 0 2.62139 0 3.56757L0 11.2973ZM29.5623 1.18919C29.5623 1.50458 29.4282 1.80706 29.1895 2.03007C28.9508 2.25309 28.6271 2.37838 28.2895 2.37838C27.952 2.37838 27.6283 2.25309 27.3896 2.03007C27.1509 1.80706 27.0168 1.50458 27.0168 1.18919C27.0168 0.873797 27.1509 0.571322 27.3896 0.348305C27.6283 0.125289 27.952 0 28.2895 0C28.6271 0 28.9508 0.125289 29.1895 0.348305C29.4282 0.571322 29.5623 0.873797 29.5623 1.18919ZM134.725 7.19697C138.283 7.19697 140 9.51886 140 12.2082V17.2593H136.277V12.8076C136.277 11.5886 135.801 10.5826 134.436 10.5826C133.071 10.5826 132.616 11.5886 132.616 12.8076V17.2587H128.892V12.8076C128.892 11.5886 128.437 10.5826 127.072 10.5826C125.707 10.5826 125.231 11.5886 125.231 12.8076V17.2587H121.508V12.2076C121.508 9.51827 123.224 7.19638 126.782 7.19638C128.727 7.19638 130.133 7.91227 130.775 9.09254C131.457 7.91227 132.947 7.19578 134.725 7.19578V7.19697ZM114.817 14.1632C116.017 14.1632 116.534 13.1376 116.534 11.9181V7.58346H120.257V12.3438C120.257 15.1883 118.478 17.5495 114.817 17.5495C111.156 17.5495 109.377 15.1889 109.377 12.3438V7.58346H113.1V11.9181C113.1 13.137 113.617 14.1632 114.817 14.1632ZM103.902 17.5685C101.565 17.5685 100.055 16.8139 99.1652 15.3435L101.854 13.9308C102.227 14.5497 102.785 14.8595 103.716 14.8595C104.481 14.8595 104.833 14.608 104.833 14.2982C104.833 13.1179 99.372 14.3178 99.372 10.5642C99.372 8.7447 101.027 7.27427 103.84 7.27427C106.301 7.27427 107.646 8.39627 108.246 9.48022L105.557 10.912C105.33 10.3317 104.626 9.98324 103.923 9.98324C103.385 9.98324 103.095 10.1961 103.095 10.4863C103.095 11.6862 108.556 10.5832 108.556 14.2209C108.556 16.2526 106.425 17.5685 103.902 17.5685ZM90.8937 21.7098H87.1704V12.4021C87.1704 9.44097 89.5491 7.2933 92.8588 7.2933C96.0858 7.2933 98.5473 9.59616 98.5473 12.4021C98.5473 15.4981 96.3544 17.5495 93.0656 17.5495C92.3001 17.5495 91.5352 17.3366 90.8937 17.0072V21.7098ZM92.8588 14.2792C94.038 14.2792 94.8239 13.4277 94.8239 12.4211C94.8239 11.396 94.038 10.5636 92.8588 10.5636C91.6796 10.5636 90.8937 11.396 90.8937 12.4217C90.8937 13.4277 91.6796 14.2792 92.8588 14.2792ZM83.4406 6.55838C82.2201 6.55838 81.207 5.61 81.207 4.46838C81.207 3.32676 82.2201 2.37838 83.4406 2.37838C84.6612 2.37838 85.6749 3.32676 85.6749 4.46838C85.6749 5.61 84.6612 6.55838 83.4406 6.55838ZM81.5793 7.58346H85.3026V17.2593H81.5793V7.58346ZM74.4355 17.5495C71.2085 17.5495 68.747 15.2276 68.747 12.4021C68.747 9.59616 71.2085 7.27427 74.4355 7.27427C77.6625 7.27427 80.1239 9.59616 80.1239 12.4021C80.1239 15.2276 77.6625 17.5495 74.4355 17.5495ZM74.4355 14.2792C75.6146 14.2792 76.4005 13.4277 76.4005 12.4211C76.4005 11.396 75.6146 10.5445 74.4355 10.5445C73.2563 10.5445 72.4704 11.396 72.4704 12.4211C72.4704 13.4277 73.2563 14.2792 74.4355 14.2792ZM61.7165 22C59.1519 22 57.2899 20.9357 56.3385 19.0389L59.4205 17.4912C59.7514 18.1494 60.3718 18.8266 61.6541 18.8266C62.9994 18.8266 63.8884 18.0329 63.9921 16.6397C63.4957 17.0464 62.7092 17.3556 61.5306 17.3556C58.6549 17.3556 56.3379 15.2852 56.3379 12.3824C56.3379 9.57714 58.8 7.2933 62.027 7.2933C65.3367 7.2933 67.7155 9.44157 67.7155 12.4021V16.2336C67.7155 19.7168 65.1293 22 61.7165 22ZM61.9646 14.0859C63.0815 14.0859 63.9297 13.3695 63.9297 12.3051C63.9297 11.2604 63.0821 10.5636 61.9646 10.5636C60.8682 10.5636 59.9995 11.2604 59.9995 12.3057C59.9995 13.3701 60.8682 14.0854 61.9646 14.0854V14.0859ZM50.0226 17.5495C46.7956 17.5495 44.3335 15.2276 44.3335 12.4021C44.3335 9.59616 46.7956 7.27427 50.0226 7.27427C53.249 7.27427 55.7111 9.59616 55.7111 12.4021C55.7111 15.2276 53.2496 17.5495 50.0226 17.5495ZM50.0226 14.2792C51.2018 14.2792 51.9877 13.4277 51.9877 12.4211C51.9877 11.396 51.2018 10.5445 50.0226 10.5445C48.8435 10.5445 48.0575 11.396 48.0575 12.4211C48.0575 13.4277 48.8435 14.2792 50.0226 14.2792ZM37.5537 4.19784V13.9694H43.7182V17.2593H37.0364C34.6786 17.2593 33.7273 16.0981 33.7273 14.2596V4.19784H37.5537Z" fill="#FFEFE4"/>
</g>
<defs>
<clipPath id="clip0_0_79">
<rect width="140" height="24" fill="white"/>
</clipPath>
</defs>
</svg>
