<svg width="140" height="24" viewBox="0 0 140 24" fill="none" xmlns="http://www.w3.org/2000/svg">
<path d="M79 18H82V7.23774H79V18ZM79 5.55944H82V3H79V5.55944Z" fill="#FFEFE4"/>
<path d="M84 21H86.945V16.4475H86.9879C87.6157 17.3338 88.6338 17.918 90.1925 17.918C93.051 17.918 95 15.8029 95 12.459C95 9.23596 93.116 7 90.171 7C88.6553 7 87.6157 7.66479 86.9014 8.57123H86.8364V7.28201H84V21ZM89.5647 15.6417C87.8109 15.6417 86.8799 14.413 86.8799 12.5396C86.8799 10.6863 87.6157 9.21587 89.4567 9.21587C91.2756 9.21587 92.0114 10.5856 92.0114 12.5396C92.0114 14.4935 91.059 15.6417 89.5647 15.6417Z" fill="#FFEFE4"/>
<path d="M100.263 18C103.07 18 105 16.7417 105 14.6513C105 12.2159 102.917 11.7288 101.03 11.3635C99.4294 11.0591 97.9385 10.9779 97.9385 10.0849C97.9385 9.33397 98.706 8.92807 99.8682 8.92807C101.14 8.92807 101.908 9.33397 102.039 10.4502H104.736C104.518 8.35981 102.873 7 99.9124 7C97.3462 7 95.3288 8.07568 95.3288 10.3284C95.3288 12.6015 97.3027 13.1088 99.3201 13.4742C100.855 13.7583 102.28 13.8598 102.28 14.8542C102.28 15.5849 101.535 16.0517 100.219 16.0517C98.8813 16.0517 97.9602 15.524 97.7632 14.3266H95C95.1753 16.5387 96.9956 18 100.263 18Z" fill="#FFEFE4"/>
<path d="M117 17.7078V7H114.037V13.1784C114.037 14.5977 113.187 15.5996 111.793 15.5996C110.529 15.5996 109.941 14.9108 109.941 13.6585V7H107V14.1385C107 16.4763 108.394 18 110.878 18C112.447 18 113.318 17.4364 114.081 16.4554H114.146V17.7078H117Z" fill="#FFEFE4"/>
<path d="M119 18H122.083V11.7799C122.083 10.3605 122.922 9.44216 124.168 9.44216C125.302 9.44216 125.959 10.0683 125.959 11.2789V18H129.041V11.7799C129.041 10.3605 129.835 9.44216 131.126 9.44216C132.26 9.44216 132.917 10.0683 132.917 11.2789V18H136V10.7989C136 8.4611 134.617 7 132.169 7C130.696 7 129.472 7.70967 128.678 8.87855H128.633C128.067 7.75143 126.888 7 125.415 7C123.805 7 122.672 7.75143 122.038 8.73244H121.97V7.29222H119V18Z" fill="#FFEFE4"/>
<path d="M1 18H4V3H1V18Z" fill="#FFEFE4"/>
<path d="M11 18C14.5597 18 17 15.6052 17 12.5C17 9.39482 14.5597 7 11 7C7.44029 7 5 9.39482 5 12.5C5 15.6052 7.44029 18 11 18ZM11 15.8893C9.11944 15.8893 8.08955 14.5295 8.08955 12.5C8.08955 10.4705 9.11944 9.09044 11 9.09044C12.8582 9.09044 13.9105 10.4705 13.9105 12.5C13.9105 14.5295 12.8582 15.8893 11 15.8893Z" fill="#FFEFE4"/>
<path d="M23.5553 21C25.2374 21 26.6982 20.6411 27.6499 19.8433C28.4909 19.1453 29 18.1681 29 16.7322V7.2792H26.1006V8.35617H26.0563C25.3702 7.49861 24.33 7 22.9135 7C20.0362 7 18 8.95441 18 12.0057C18 15.0969 20.4789 16.8917 23.002 16.8917C24.4406 16.8917 25.3038 16.3732 25.9678 15.6952H26.0342V16.812C26.0342 18.208 25.2153 18.9459 23.511 18.9459C22.1167 18.9459 21.4748 18.4473 21.2314 17.8091H18.2434C18.5533 19.8034 20.4567 21 23.5553 21ZM23.511 14.718C21.9617 14.718 20.9437 13.7008 20.9437 11.9658C20.9437 10.2507 21.9617 9.17382 23.4889 9.17382C25.3038 9.17382 26.1891 10.4502 26.1891 11.9459C26.1891 13.4615 25.4145 14.718 23.511 14.718Z" fill="#FFEFE4"/>
<path d="M36 18C39.5597 18 42 15.6052 42 12.5C42 9.39482 39.5597 7 36 7C32.4403 7 30 9.39482 30 12.5C30 15.6052 32.4403 18 36 18ZM36 15.8893C34.1194 15.8893 33.0896 14.5295 33.0896 12.5C33.0896 10.4705 34.1194 9.09044 36 9.09044C37.8582 9.09044 38.9105 10.4705 38.9105 12.5C38.9105 14.5295 37.8582 15.8893 36 15.8893Z" fill="#FFEFE4"/>
<path d="M136 6C136 5.44771 136.448 5 137 5H139C139.552 5 140 5.44771 140 6C140 6.55228 139.552 7 139 7H137C136.448 7 136 6.55228 136 6Z" fill="#FFEFE4"/>
<path fill-rule="evenodd" clip-rule="evenodd" d="M59.9999 0C67.1793 0 73 5.37259 73 12C73 18.6274 67.1793 24 59.9999 24C52.8203 24 47 18.6274 47 12C47 5.37259 52.8203 0 59.9999 0ZM59.53 0.897954C58.0469 1.09061 56.6347 2.19065 55.5385 4.03044C55.2206 4.5641 54.9336 5.15368 54.6837 5.79026C56.1742 5.4445 57.8116 5.24065 59.53 5.20912V0.897954ZM53.5849 6.07848C53.8959 5.17775 54.2762 4.34904 54.7151 3.61239C55.2585 2.70035 55.9034 1.91277 56.6301 1.30786C52.6788 2.36714 49.5644 5.24207 48.4168 8.88942C49.0721 8.21868 49.9253 7.62336 50.9134 7.12176C51.7114 6.71658 52.6091 6.36546 53.5849 6.07848ZM53.2727 7.09266C52.8981 8.46858 52.6773 9.98004 52.6431 11.5663H47.9727C48.1814 10.1972 49.3731 8.89368 51.3663 7.88184C51.9444 7.58832 52.5831 7.32348 53.2727 7.09266ZM53.5831 11.5663C53.6219 9.8352 53.8919 8.21004 54.3386 6.77412C55.8941 6.3618 57.6547 6.11256 59.53 6.07674V7.95048C58.8304 9.60372 57.4036 10.9207 55.6125 11.5663H53.5831ZM52.6431 12.4337H47.9727C48.1814 13.8028 49.3731 15.1063 51.3663 16.1182C51.9444 16.4117 52.5831 16.6765 53.2727 16.9073C52.8981 15.5314 52.6773 14.02 52.6431 12.4337ZM54.3386 17.2259C53.8919 15.79 53.6219 14.1648 53.5831 12.4337H55.6125C57.4036 13.0793 58.8304 14.3963 59.53 16.0495V17.9233C57.6547 17.8874 55.8941 17.6382 54.3386 17.2259ZM53.5849 17.9215C52.6091 17.6345 51.7114 17.2834 50.9134 16.8782C49.9253 16.3766 49.0721 15.7813 48.4168 15.1106C49.5644 18.7579 52.6788 21.6329 56.6301 22.6921C55.9034 22.0872 55.2585 21.2996 54.7151 20.3876C54.2762 19.651 53.8959 18.8222 53.5849 17.9215ZM59.53 23.102C58.0469 22.9094 56.6347 21.8093 55.5385 19.9696C55.2206 19.4359 54.9336 18.8463 54.6837 18.2098C56.1742 18.5555 57.8116 18.7594 59.53 18.7909V23.102ZM63.3697 22.6921C64.0963 22.0872 64.7412 21.2996 65.2846 20.3876C65.7233 19.651 66.1042 18.8222 66.4149 17.9215C67.3905 17.6345 68.2882 17.2834 69.0864 16.8782C70.0744 16.3766 70.9278 15.7813 71.583 15.1106C70.4351 18.7579 67.321 21.6329 63.3697 22.6921ZM65.3164 18.2098C65.0662 18.8463 64.7789 19.4359 64.461 19.9696C63.365 21.8093 61.9528 22.9094 60.4697 23.102V18.7909C62.1881 18.7594 63.8255 18.5555 65.3164 18.2098ZM66.7269 16.9073C67.4165 16.6765 68.0555 16.4117 68.6333 16.1182C70.6269 15.1063 71.8183 13.8028 72.027 12.4337H67.3567C67.3223 14.02 67.1013 15.5314 66.7269 16.9073ZM66.4168 12.4337C66.3778 14.1648 66.1081 15.79 65.6609 17.2259C64.1056 17.6382 62.345 17.8874 60.4697 17.9233V16.0509C61.1691 14.3971 62.5963 13.0795 64.3878 12.4337H66.4168ZM67.3567 11.5663H72.027C71.8183 10.1972 70.6269 8.89368 68.6333 7.88184C68.0555 7.58832 67.4165 7.32348 66.7269 7.09266C67.1013 8.46858 67.3223 9.98004 67.3567 11.5663ZM65.6609 6.77412C66.1081 8.21004 66.3778 9.8352 66.4168 11.5663H64.3879C62.5963 10.9205 61.1691 9.60294 60.4697 7.9491V6.07674C62.345 6.11256 64.1056 6.3618 65.6609 6.77412ZM66.4149 6.07848C67.3905 6.36546 68.2882 6.71658 69.0864 7.12176C70.0744 7.62336 70.9278 8.21868 71.583 8.88942C70.4351 5.24207 67.321 2.36714 63.3697 1.30786C64.0963 1.91277 64.7412 2.70035 65.2846 3.61239C65.7233 4.34904 66.1042 5.17775 66.4149 6.07848ZM60.4697 0.897954C61.9528 1.09061 63.365 2.19065 64.461 4.03044C64.7789 4.5641 65.0662 5.15368 65.3164 5.79026C63.8255 5.4445 62.1881 5.24065 60.4697 5.20912V0.897954Z" fill="#FFEFE4"/>
</svg>
