<svg width="100" height="24" viewBox="0 0 100 24" fill="none" xmlns="http://www.w3.org/2000/svg">
<g clip-path="url(#clip0_0_75)">
<path d="M97.4324 4.59849L99.8191 7.12008C99.9026 7.18974 99.9643 7.28376 99.9964 7.39026C100.045 8.0109 99.5972 8.04486 99.1398 8.07954C98.942 8.09454 98.7424 8.10972 98.5806 8.1726C97.7777 8.40054 97.0619 8.88198 96.5295 9.55158C95.9966 10.2212 95.6735 11.0465 95.6032 11.9156C95.5517 12.016 95.4739 12.0986 95.3785 12.1535C95.2835 12.2084 95.1755 12.2333 95.0668 12.2252C94.941 12.2135 94.8232 12.1557 94.734 12.0619L93.9507 11.2343C93.9564 11.2909 93.9564 11.347 93.9564 11.3921V11.9381C93.9564 11.9726 93.9575 12.0058 93.9535 12.039C93.9484 12.0762 93.9364 12.1133 93.9083 12.1519V12.2026C93.9083 12.2285 93.9112 12.2525 93.9141 12.277C93.9198 12.3269 93.9261 12.3784 93.9083 12.4503C93.8912 12.5173 93.8895 12.5955 93.8872 12.6653C93.8866 12.7067 93.8855 12.7453 93.8815 12.7767C93.8758 12.8203 93.8757 12.8669 93.8723 12.9134C93.8689 12.9569 93.862 13.0004 93.8437 13.0412C93.8186 13.0984 93.81 13.1529 93.8077 13.2083C93.806 13.2349 93.806 13.2616 93.806 13.2889L93.774 13.4634L92.5566 19.5535L92.46 20.0093L92.4222 20.6735L91.8859 23.5497L91.8001 24H48.389L48.1798 23.7805L48.1422 23.9719H43.497L40.9115 21.242L41.1582 20.0093H39.6992L38.7927 19.0469C37.6677 19.9065 36.3059 20.3571 34.9145 20.3302C33.4188 20.392 31.9606 19.8293 30.8593 18.7655L29.4485 17.2739L29.1428 18.7711C29.1053 18.985 29.057 19.1876 29.0033 19.3846L28.9551 19.5704L28.8746 19.8405C28.868 19.864 28.859 19.8866 28.8478 19.9081C28.7679 20.1562 28.673 20.3987 28.5635 20.6341C28.5664 20.6432 28.5664 20.6531 28.5635 20.6623C28.5494 20.6935 28.5333 20.7235 28.5152 20.7523C28.4342 20.9205 28.3447 21.0839 28.247 21.242C28.2289 21.2708 28.2128 21.3009 28.1987 21.3321L28.1397 21.3996C28.0086 21.5969 27.8653 21.7849 27.7106 21.9625C27.6682 22.007 27.6257 22.0488 27.5826 22.0898C27.5386 22.1318 27.4939 22.1731 27.4477 22.2157L27.3298 22.3339C27.2554 22.3988 27.1793 22.4614 27.1016 22.5217C27.0375 22.5714 26.9723 22.6195 26.906 22.666C25.8005 23.3533 24.5254 23.6804 23.2424 23.606C21.4722 23.606 20.0561 23.0656 19.1603 22.1201L16.6392 19.4578C15.6322 20.0557 14.492 20.3626 13.335 20.3471C11.8438 20.3955 10.3944 19.8252 9.30123 18.7598L7.89053 17.2683L7.43457 19.5704L7.34337 20.0263H2.59621L0 17.2795L0.134101 16.6154L2.98777 2.23451L3.07358 1.78423H7.83684L7.96023 1.90808V1.78423H40.0533L40.1713 1.90808V1.78423H44.8165L47.4127 4.53095L47.284 5.18948L47.1445 5.90994H48.4802L48.6894 6.12948C49.2771 5.76806 49.9446 5.57403 50.6258 5.56661C51.1267 5.55623 51.6241 5.65607 52.086 5.85965C52.548 6.06324 52.9641 6.366 53.3078 6.74856L53.238 6.66414L54.4986 7.99812C55.2657 6.48408 56.9875 5.56661 59.3261 5.56661C61.1393 5.56661 62.475 6.05064 63.2847 6.92868L64.1967 7.8912L64.5026 6.34332L64.5935 5.89304H69.244L70.5746 7.29456L70.7622 6.34896L70.8537 5.89867H80.0049L80.2513 6.15762C80.8712 5.77384 81.5808 5.57891 82.3007 5.59475C82.7335 5.57702 83.1647 5.66019 83.5638 5.83828C83.9623 6.01638 84.3186 6.285 84.6068 6.62478C84.5919 6.60708 84.5776 6.58938 84.5633 6.57198C84.5376 6.5397 84.5118 6.5082 84.4844 6.47904L84.9504 6.9681C85.3564 6.52692 85.8447 6.17754 86.3839 5.94141C86.9237 5.70526 87.5035 5.58726 88.0879 5.59475C88.3984 5.57472 88.7083 5.60244 89.0091 5.6762L88.5013 5.13884C88.4322 5.06117 88.3853 4.96453 88.3664 4.86013C88.3475 4.75573 88.3572 4.64779 88.3938 4.54888C88.431 4.44994 88.4939 4.36406 88.5757 4.30112C88.6574 4.23819 88.7541 4.20077 88.8553 4.19325H89.263C89.3728 4.18226 89.482 4.16536 89.5901 4.14258C90.1601 4.01684 90.6965 3.75974 91.1602 3.38982C91.6245 3.01994 92.0042 2.54651 92.2724 2.00375C92.2958 1.96177 92.317 1.91859 92.3364 1.8743V1.84617C92.5211 1.42929 92.6332 0.981486 92.6692 0.52345C92.6784 0.381122 92.7396 0.247864 92.8391 0.150712C92.9386 0.0535248 93.0695 -0.000341904 93.2056 1.63313e-06H93.2485C93.3297 0.00810912 93.4086 0.0356608 93.4783 0.0805266C93.5481 0.125427 93.607 0.186439 93.651 0.258926C94.037 0.652926 96.1824 2.9437 96.1824 2.9437C96.3614 3.14543 96.3482 3.40731 96.3345 3.67228C96.3259 3.83611 96.3174 4.00115 96.354 4.15385C96.4517 4.17223 96.5507 4.18614 96.649 4.19555C96.7439 4.20452 96.8389 4.2094 96.9338 4.21012C97.0447 4.21256 97.1528 4.25124 97.242 4.32084C97.3312 4.39041 97.3981 4.48746 97.4324 4.59849Z" fill="#FFEFE4"/>
<path d="M24.8428 6.03734H28.2252L26.3306 15.2851C25.9828 17.0367 25.3191 18.0392 24.3129 18.7497C23.2952 19.3574 22.1267 19.6447 20.952 19.5758C18.7149 19.5758 16.5687 18.612 16.3547 16.2711H19.7585C19.8655 16.8219 20.3579 17.1358 21.1072 17.1358C22.1187 17.1358 22.5843 16.5079 22.793 15.522L22.9964 14.503H22.9214C22.6228 14.8409 22.2605 15.1128 21.8566 15.3021C21.4527 15.4915 21.0157 15.5944 20.572 15.6046C18.6025 15.6046 17.0397 13.9908 17.0718 11.6279C17.1146 8.87391 18.8593 5.74541 21.7869 5.74541C22.3416 5.70695 22.8955 5.83278 23.383 6.10804C23.8705 6.38323 24.2712 6.79641 24.5377 7.29865H24.5966L24.8428 6.03734ZM21.9367 13.0214C23.2372 13.0214 23.9597 11.4792 23.9811 10.1518C23.9811 9.26501 23.6439 8.35616 22.6485 8.35616C21.2891 8.35616 20.5987 9.91492 20.5773 11.2533C20.5773 12.1567 20.9145 13.0214 21.9099 13.0214M59.9088 13.3189C59.9088 13.9082 59.4159 14.145 58.7684 14.145C57.6981 14.145 57.3396 13.5942 57.3343 12.8231H53.9679C53.9091 15.6983 56.4031 16.4088 58.6189 16.4088C61.4498 16.4088 63.2857 15.1475 63.3234 12.6304C63.3234 10.6199 61.6586 10.0086 60.0212 9.61747C58.7632 9.32008 58.2121 9.10525 58.2172 8.61504C58.223 8.12483 58.7849 7.92655 59.336 7.92655C60.0264 7.92655 60.497 8.1799 60.5455 8.82987H63.8157C63.7781 6.42838 61.6746 5.7234 59.534 5.7234C56.9329 5.7234 54.9045 6.94061 54.8724 9.24293C54.8724 11.055 56.0605 11.7215 57.8533 12.1952C59.004 12.5092 59.9191 12.6083 59.9088 13.3189ZM84.9179 7.52999H84.8591C84.7137 6.98758 84.3919 6.51276 83.948 6.18413C83.5042 5.85556 82.9645 5.69298 82.4185 5.7234C80.9631 5.7234 80.0748 6.46696 79.2344 7.59058H79.1757L79.486 6.03734H76.0818L74.0427 16.0728H77.6022L78.6725 10.6585C78.9184 9.47979 79.502 8.65361 80.3852 8.65361C81.2683 8.65361 81.3858 9.38062 81.2038 10.2674L80.0263 16.0728H83.5852L84.656 10.6585C84.9019 9.4027 85.4856 8.65361 86.3681 8.65361C87.2513 8.65361 87.3694 9.3421 87.1874 10.2674L86.0099 16.0728H89.5687L90.8427 10.1077C91.3778 7.59058 90.5592 5.70132 88.2098 5.70132C87.556 5.69856 86.9124 5.86449 86.3373 6.18395C85.7623 6.50342 85.2745 6.96621 84.9179 7.52999ZM1 16.0728H4.67677L7.51864 2H3.84722L1 16.0728ZM12.0678 5.73989C14.551 5.73989 16.922 7.13889 16.8845 10.306C16.8524 13.7705 14.5618 16.3647 11.0616 16.3647C8.65322 16.3647 6.24491 14.9878 6.28769 11.8372C6.34657 8.45533 8.60507 5.73989 12.0678 5.73989ZM11.1633 13.9082C12.7314 13.9082 13.3041 11.5673 13.3041 10.1903C13.3041 9.20442 13.0097 8.2405 11.9768 8.2405C10.4247 8.2405 9.89489 10.7191 9.89489 11.9969C9.89489 13.0214 10.1732 13.9082 11.1847 13.9082M8.74422 2L8.20902 4.81456H39.0842L39.6194 2H8.74422ZM33.5771 5.73989C36.0604 5.73989 38.4313 7.13889 38.3939 10.306C38.3617 13.7705 36.0658 16.3647 32.5656 16.3647C30.1572 16.3647 27.7489 14.9878 27.7971 11.8372C27.872 8.45533 30.1305 5.73989 33.5771 5.73989ZM32.6887 13.9082C34.2568 13.9082 34.8295 11.5673 34.8295 10.1903C34.8295 9.20442 34.5298 8.2405 33.4968 8.2405C31.9501 8.2405 31.4149 10.7191 31.4149 11.9969C31.4149 13.0214 31.6932 13.9082 32.7101 13.9082M40.8825 2L40.3473 4.81456H43.901L44.4362 2H40.8825ZM38.0353 16.0728H41.5943L43.6334 6.03734H40.0529L38.0353 16.0728ZM49.392 16.4088C48.8256 16.4502 48.2591 16.3283 47.7562 16.0569C47.2533 15.7855 46.8338 15.3752 46.5448 14.8721H46.4859L45.4156 19.9504H41.8137L44.7038 6.03734H48.0862L47.8186 7.37574C48.1718 6.88137 48.6294 6.47582 49.1568 6.18959C49.6842 5.90341 50.2679 5.744 50.8638 5.7234C53.0046 5.7234 54.2623 7.6126 54.2248 10.0692C54.1766 13.1591 52.6192 16.4088 49.3706 16.4088H49.392ZM49.2529 8.56548C47.8775 8.56548 47.0319 10.3776 47.0105 11.7711C47.0105 12.7405 47.3423 13.82 48.4715 13.82C49.9433 13.82 50.548 11.8152 50.5641 10.4767C50.5641 9.56792 50.3072 8.56548 49.2529 8.56548ZM69.8312 14.492H69.89L69.5796 16.0838H72.9616L75.0012 6.04832H71.4475L70.3127 11.6554C70.0828 12.8176 69.3868 13.429 68.5093 13.429C67.6313 13.429 67.4385 12.5807 67.6153 11.694L68.7661 6.04832H65.2123L63.9543 12.2448C63.4192 14.9437 64.6395 16.3978 66.6843 16.3978C67.3261 16.3913 67.9554 16.2108 68.5076 15.8742C69.0599 15.5377 69.5169 15.0571 69.8312 14.481V14.492ZM88.9212 20L89.4563 17.1854H47.2513L46.7161 20H88.9212Z" fill="#B285FF"/>
<path d="M93.1784 9C93.1417 8.99717 93.1057 8.987 93.0726 8.97008C93.0389 8.95323 93.0095 8.92994 92.9854 8.90159C92.9614 8.87324 92.9434 8.84044 92.9319 8.80499C92.9205 8.76954 92.9163 8.73222 92.9193 8.69508C92.9662 8.19227 92.9067 7.68512 92.7444 7.20699C92.5821 6.72885 92.3206 6.29038 91.9768 5.92046C91.6335 5.55052 91.2157 5.25739 90.7517 5.06028C90.287 4.86317 89.7863 4.76652 89.2819 4.77667C89.2074 4.77667 89.1359 4.74693 89.083 4.69398C89.0301 4.64104 89 4.56923 89 4.49435C89 4.41948 89.0301 4.34768 89.083 4.29474C89.1359 4.24179 89.2074 4.21205 89.2819 4.21205C89.4172 4.2208 89.553 4.2208 89.6883 4.21205C90.6898 4.10521 91.6227 3.65211 92.3266 2.93074C93.0311 2.20936 93.4615 1.26483 93.5451 0.25972C93.5511 0.188829 93.583 0.122702 93.6353 0.07455C93.6875 0.0263982 93.7561 -0.00022666 93.827 1.45376e-06C93.8643 0.00285137 93.9003 0.013016 93.9334 0.0299054C93.9665 0.0467948 93.9959 0.0700775 94.02 0.0984147C94.0446 0.126753 94.0626 0.159583 94.0741 0.195019C94.0855 0.230456 94.0897 0.267794 94.0867 0.304891C94.0398 0.807261 94.0993 1.3139 94.261 1.79166C94.4233 2.26941 94.6842 2.70754 95.0269 3.0774C95.3701 3.44725 95.7867 3.7405 96.2501 3.93797C96.7142 4.13544 97.2143 4.23268 97.7181 4.22334C97.7926 4.22334 97.8647 4.25309 97.9176 4.30603C97.9705 4.35897 98 4.43078 98 4.50565C98 4.58052 97.9705 4.65233 97.9176 4.70528C97.8647 4.75822 97.7926 4.78796 97.7181 4.78796C96.6469 4.80568 95.6196 5.21889 94.8339 5.94833C94.0482 6.67775 93.5589 7.672 93.4609 8.74029C93.4549 8.81119 93.4231 8.87733 93.3708 8.92548C93.3185 8.97364 93.2499 9.00024 93.1784 9Z" fill="#B285FF"/>
</g>
<defs>
<clipPath id="clip0_0_75">
<rect width="100" height="24" fill="white"/>
</clipPath>
</defs>
</svg>
