<svg width="192" height="24" viewBox="0 0 192 24" fill="none" xmlns="http://www.w3.org/2000/svg">
<path d="M95.6265 20.742H89.1654V3.25676H95.6265V20.742ZM89.7963 20.1033H94.9955V3.89547H89.7963V20.1033ZM104.616 20.742H98.2854V3.25676H111.513C113.408 3.10143 115.295 3.63994 116.831 4.77432C117.492 5.3866 118.004 6.14523 118.328 6.991C118.652 7.83679 118.778 8.74686 118.697 9.6502C118.791 11.2112 118.301 12.7507 117.323 13.9615C116.166 15.3053 114.24 15.9977 111.6 16.0219C110.935 16.0398 105.952 16.0219 104.62 16.0219L104.616 20.742ZM98.9125 20.1033H103.986V15.3768H104.302C104.367 15.3768 110.837 15.3973 111.585 15.3768C114.044 15.3551 115.812 14.7381 116.846 13.5335C117.716 12.4381 118.149 11.0517 118.057 9.64892C118.135 8.83952 118.027 8.0229 117.743 7.26239C117.458 6.50188 117.005 5.81793 116.417 5.26357C114.993 4.229 113.251 3.74336 111.504 3.89419H98.9163L98.9125 20.1033ZM110.173 12.0939H103.943V7.33426H110.214C110.659 7.27207 111.112 7.3246 111.531 7.48695C111.95 7.6493 112.322 7.91622 112.612 8.26293C112.875 8.70612 112.999 9.21969 112.968 9.73579C112.992 10.2149 112.889 10.6919 112.671 11.1179C112.372 11.4831 111.985 11.7643 111.548 11.9343C111.11 12.1043 110.637 12.1575 110.173 12.0888V12.0939ZM104.574 11.4552H110.173C111.208 11.4552 111.849 11.2367 112.133 10.7871C112.289 10.4603 112.36 10.0983 112.338 9.73579C112.366 9.3552 112.284 8.97463 112.104 8.63977L112.096 8.62827C111.796 8.18118 111.199 7.97296 110.214 7.97296H104.574V11.4552ZM130.212 21C124.546 21 121.164 19.5757 119.876 16.6466C119.665 16.0808 119.522 15.4915 119.449 14.8914L119.394 14.5235H126.135L126.179 14.7918C126.231 15.0641 126.346 15.3205 126.512 15.5403C126.779 15.8661 127.667 16.4128 130.615 16.4128C134.158 16.4128 134.158 15.7831 134.158 15.4445C134.158 14.8735 133.748 14.6781 130.858 14.3664L130.309 14.314C129.222 14.2106 127.846 14.079 127.218 14.0241C121.918 13.5386 119.551 11.8716 119.551 8.62061C119.551 5.20609 123.578 3 129.811 3C134.895 3 138.171 4.35661 139.545 7.03534C139.871 7.65844 140.091 8.33318 140.193 9.03066L140.237 9.38961H133.488L133.46 9.10092C133.434 8.8753 133.339 8.66364 133.188 8.49542C132.935 8.15308 132.138 7.58718 129.662 7.58718C126.622 7.58718 126.203 7.98063 126.203 8.40473C126.203 8.97062 127.163 9.17117 130.241 9.50458C131.525 9.6106 133.588 9.82521 134.295 9.91207C138.738 10.4 140.72 12.0262 140.72 15.1865C140.722 17.8371 138.898 21 130.212 21ZM120.131 15.1622C120.194 15.5835 120.303 15.9964 120.455 16.3937C121.629 19.0622 124.821 20.3613 130.212 20.3613C134.72 20.3613 140.094 19.4671 140.094 15.1865C140.094 12.3851 138.34 10.9979 134.228 10.5469C133.521 10.4601 131.47 10.2468 130.189 10.1395C126.908 9.77922 125.575 9.58761 125.575 8.40473C125.575 7.18097 127.012 6.94848 129.665 6.94848C131.761 6.94848 133.115 7.3317 133.689 8.10453C133.845 8.29493 133.964 8.51452 134.037 8.7509H139.506C139.397 8.25687 139.222 7.77968 138.989 7.3317C137.727 4.88035 134.644 3.63871 129.813 3.63871C123.964 3.63871 120.185 5.59442 120.185 8.62061C120.185 11.5076 122.306 12.9331 127.276 13.3879C127.907 13.4428 129.281 13.5744 130.371 13.6792L130.924 13.7315C133.608 14.0177 134.792 14.1965 134.792 15.4445C134.792 16.7884 133.261 17.0515 130.617 17.0515C128.172 17.0515 126.627 16.6798 126.03 15.9478C125.846 15.7145 125.707 15.4479 125.621 15.1622H120.131ZM152.709 20.9783C146.121 20.9783 142.487 18.2817 142.487 13.3841V3.25676H148.862V13.3841C148.862 15.0639 150.348 16.027 152.936 16.027C155.409 16.027 156.945 15.0217 156.945 13.4058V3.25676H163.255V13.9206C163.261 18.4056 159.413 20.9783 152.705 20.9783H152.709ZM143.118 3.89547V13.3841C143.118 19.4364 149.122 20.3396 152.709 20.3396C156.416 20.3396 162.634 19.5054 162.634 13.9206V3.89547H157.586V13.4058C157.586 15.3858 155.764 16.6657 152.946 16.6657C150.001 16.6657 148.241 15.4394 148.241 13.3841V3.89547H143.118ZM189.992 20.742H183.976V12.8476L180.563 20.742H175.315L171.938 12.8629V20.742H165.9V3.25676H173.842L177.969 12.8974L182.295 3.25676H190L189.992 20.742ZM184.607 20.1033H189.361V3.89547H182.696L177.949 14.4712L173.423 3.89547H166.526V20.1033H171.302V9.78944L175.719 20.1071H180.135L184.599 9.80477L184.607 20.1033ZM7.74684 3.57611H2V20.4226H17.8801V15.9376H7.74684V3.57611ZM29.4798 3.19289C22.1442 3.19289 18.2865 6.71216 18.2865 11.8793C18.2865 17.7171 22.336 20.6781 29.4798 20.6781C37.3442 20.6781 40.6517 17.2444 40.6517 11.8793C40.6517 6.43113 36.9202 3.19033 29.4798 3.19033V3.19289ZM29.4584 7.57058C29.9577 7.5682 30.4568 7.59763 30.9525 7.65872L24.528 14.162C24.224 13.466 24.0757 12.7104 24.0939 11.9495C24.0939 9.30658 25.4088 7.56802 29.4584 7.56802V7.57058ZM29.4798 16.3694C28.9986 16.3716 28.5178 16.3442 28.04 16.2876L34.4758 9.77283C34.7684 10.4574 34.9085 11.1988 34.8859 11.9444C34.8859 14.5159 33.6745 16.3668 29.4798 16.3668V16.3694ZM52.0381 14.07H57.9528C57.8657 14.4856 57.6842 14.8748 57.4228 15.2069C56.1965 16.2181 54.6316 16.7102 53.0552 16.5802C52.2617 16.6661 51.4594 16.5784 50.7023 16.3229C49.9453 16.0675 49.2513 15.6503 48.6675 15.0996C48.0695 14.2117 47.7854 13.1453 47.8611 12.0735C47.7643 10.9503 48.0732 9.8297 48.7306 8.91952C49.5571 7.97424 50.9566 7.56674 53.0136 7.56674C54.3223 7.45705 55.6294 7.79729 56.7237 8.53247C57.0685 8.80977 57.3263 9.18256 57.4657 9.60549H62.9513C62.9114 8.90863 62.7458 8.22503 62.4629 7.58846C61.1492 4.88418 58.0954 3.27464 52.9025 3.27464C48.3861 3.27464 45.3549 4.66958 43.6803 6.77347C42.5744 8.29277 42.0066 10.1451 42.0688 12.0313C41.9973 13.9602 42.5504 15.8598 43.6437 17.4411C45.2981 19.6127 48.2447 20.6806 51.7857 20.6806C54.1398 20.8468 56.478 20.1794 58.3995 18.7926L58.5484 20.4226H63.1052V10.4435H52.0381V14.07ZM76.0388 3.18906C68.7044 3.18906 64.8454 6.70832 64.8454 11.8755C64.8454 17.7132 68.8937 20.6743 76.0388 20.6743C83.9044 20.6743 87.2119 17.2406 87.2119 11.8755C87.2119 6.43113 83.4804 3.19033 76.0388 3.19033V3.18906ZM76.0186 7.56674C76.5048 7.56529 76.9906 7.59344 77.4736 7.65105L71.0743 14.1326C70.7798 13.4442 70.6364 12.6995 70.6541 11.9495C70.6491 9.30658 71.969 7.56674 76.0186 7.56674ZM76.0388 16.3656C75.5449 16.3677 75.0513 16.3386 74.5611 16.2787L81.0183 9.7409C81.3221 10.4346 81.4675 11.1886 81.4436 11.947C81.4462 14.5159 80.2397 16.3668 76.0388 16.3668V16.3656Z" fill="#FFEFE4"/>
</svg>
