<svg width="93" height="24" viewBox="0 0 93 24" fill="none" xmlns="http://www.w3.org/2000/svg">
<g clip-path="url(#clip0_126_268)">
<path d="M12 8C10.9391 8 9.92172 8.42143 9.17157 9.17157C8.42143 9.92172 8 10.9391 8 12C8 13.0609 8.42143 14.0783 9.17157 14.8284C9.92172 15.5786 10.9391 16 12 16C13.0609 16 14.0783 15.5786 14.8284 14.8284C15.5786 14.0783 16 13.0609 16 12C16 10.9391 15.5786 9.92172 14.8284 9.17157C14.0783 8.42143 13.0609 8 12 8Z" fill="#1B1B1B"/>
<path fill-rule="evenodd" clip-rule="evenodd" d="M7.2 0C5.29044 0 3.45909 0.758569 2.10883 2.10883C0.758569 3.45909 0 5.29044 0 7.2L0 16.8C0 18.7096 0.758569 20.5409 2.10883 21.8912C3.45909 23.2414 5.29044 24 7.2 24H16.8C18.7096 24 20.5409 23.2414 21.8912 21.8912C23.2414 20.5409 24 18.7096 24 16.8V7.2C24 5.29044 23.2414 3.45909 21.8912 2.10883C20.5409 0.758569 18.7096 0 16.8 0L7.2 0ZM6.4 12C6.4 10.5148 6.99 9.09041 8.0402 8.0402C9.09041 6.99 10.5148 6.4 12 6.4C13.4852 6.4 14.9096 6.99 15.9598 8.0402C17.01 9.09041 17.6 10.5148 17.6 12C17.6 13.4852 17.01 14.9096 15.9598 15.9598C14.9096 17.01 13.4852 17.6 12 17.6C10.5148 17.6 9.09041 17.01 8.0402 15.9598C6.99 14.9096 6.4 13.4852 6.4 12ZM17.6 6.4H19.2V4.8H17.6V6.4Z" fill="#1B1B1B"/>
</g>
<path d="M43.7766 6.71094C41.9812 7.55469 40.6453 9.20937 40.2281 11.1969C40.5141 11.2016 43.1531 11.2109 46.1531 10.4141C45.0891 8.52969 43.9453 6.94063 43.7766 6.71094ZM45 6.28438C45.1781 6.52344 46.3406 8.10781 47.3906 10.0344C49.6687 9.17656 50.6297 7.88281 50.7469 7.71875C49.1719 6.32188 47.0297 5.79219 45 6.28438ZM49.0031 18.4062C48.9094 17.8438 48.5344 15.8844 47.6344 13.55C45.0516 14.4312 43.2375 16.1938 42.5672 17.5625C44.4656 19.0438 46.9406 19.2828 49.0031 18.4062ZM46.6781 11.4031C43.4813 12.3594 40.3781 12.3219 40.0969 12.3125V12.5094C40.0969 14.1547 40.7203 15.6547 41.7422 16.7938C42.7828 15.0172 44.8875 13.1422 47.2031 12.4906C47.0437 12.125 46.8656 11.7641 46.6828 11.4031H46.6781ZM50.0766 17.8203C51.5156 16.85 52.5375 15.3078 52.8234 13.5266C52.6078 13.4562 50.8406 12.9313 48.8344 13.2547C49.6734 15.5563 50.0109 17.4312 50.0766 17.8203ZM48.4453 12.2422C50.5781 11.975 52.6969 12.4016 52.9078 12.4484C52.8938 10.9344 52.3547 9.54688 51.4594 8.45938C51.3234 8.64219 50.25 10.0156 47.8828 10.9859C48.1078 11.4453 48.2719 11.8203 48.4453 12.2422ZM54 2H39C37.3453 2 36 3.34531 36 5V20C36 21.6547 37.3453 23 39 23H54C55.6547 23 57 21.6547 57 20V5C57 3.34531 55.6547 2 54 2ZM46.5 20C44.5109 20 42.6032 19.2098 41.1967 17.8033C39.7902 16.3968 39 14.4891 39 12.5C39 10.5109 39.7902 8.60322 41.1967 7.1967C42.6032 5.79018 44.5109 5 46.5 5C48.4891 5 50.3968 5.79018 51.8033 7.1967C53.2098 8.60322 54 10.5109 54 12.5C54 14.4891 53.2098 16.3968 51.8033 17.8033C50.3968 19.2098 48.4891 20 46.5 20Z" fill="#1B1B1B"/>
<path fill-rule="evenodd" clip-rule="evenodd" d="M71 3.75446C71 3.28915 71.1848 2.84289 71.5139 2.51387C71.8429 2.18485 72.2891 2 72.7545 2H90.2436C90.4742 1.99963 90.7026 2.04474 90.9158 2.13275C91.1289 2.22076 91.3226 2.34995 91.4857 2.51291C91.6489 2.67588 91.7783 2.86942 91.8665 3.08247C91.9548 3.29551 92.0001 3.52386 92 3.75446V21.2436C92.0002 21.4743 91.955 21.7027 91.8669 21.9158C91.7788 22.129 91.6495 22.3227 91.4865 22.4858C91.3234 22.6489 91.1298 22.7783 90.9167 22.8665C90.7036 22.9548 90.4752 23.0001 90.2446 23H72.7545C72.524 23 72.2958 22.9546 72.0828 22.8664C71.8699 22.7781 71.6765 22.6488 71.5135 22.4858C71.3506 22.3228 71.2214 22.1293 71.1333 21.9163C71.0452 21.7033 70.9999 21.4751 71 21.2446V3.75446ZM79.3122 10.0067H82.1558V11.4347C82.5662 10.6138 83.6162 9.875 85.1941 9.875C88.219 9.875 88.9359 11.5101 88.9359 14.5103V20.0676H85.8747V15.1937C85.8747 13.4851 85.4642 12.521 84.4219 12.521C82.9757 12.521 82.3744 13.5605 82.3744 15.1937V20.0676H79.3122V10.0067ZM74.0622 19.9369H77.1244V9.875H74.0622V19.9369ZM77.5625 6.59327C77.5683 6.85546 77.5216 7.11616 77.4253 7.36007C77.3289 7.60399 77.1848 7.8262 77.0014 8.01367C76.8181 8.20114 76.5991 8.35009 76.3573 8.45178C76.1156 8.55347 75.856 8.60585 75.5938 8.60585C75.3315 8.60585 75.0719 8.55347 74.8302 8.45178C74.5884 8.35009 74.3694 8.20114 74.1861 8.01367C74.0027 7.8262 73.8586 7.60399 73.7622 7.36007C73.6659 7.11616 73.6192 6.85546 73.625 6.59327C73.6363 6.07864 73.8487 5.58889 74.2167 5.22893C74.5847 4.86897 75.079 4.6674 75.5938 4.6674C76.1085 4.6674 76.6028 4.86897 76.9708 5.22893C77.3388 5.58889 77.5512 6.07864 77.5625 6.59327Z" fill="#1B1B1B"/>
<defs>
<clipPath id="clip0_126_268">
<rect width="24" height="24" fill="white"/>
</clipPath>
</defs>
</svg>
