<svg width="375" height="393" viewBox="0 0 375 393" fill="none" xmlns="http://www.w3.org/2000/svg">
<path d="M116.613 103.615C101.71 113.539 89.4168 126.907 80.7725 142.587C72.1282 158.267 67.3873 175.798 66.9506 193.698C66.5138 211.598 70.3942 229.339 78.2636 245.422C86.1329 261.505 97.7596 275.457 112.16 286.096C126.561 296.736 143.313 303.751 160.998 306.549C178.683 309.346 196.782 307.843 213.763 302.167C230.745 296.491 246.11 286.809 258.558 273.94C271.007 261.071 280.173 245.393 285.282 228.232L272.245 224.351C267.76 239.418 259.711 253.183 248.781 264.482C237.851 275.782 224.361 284.282 209.451 289.266C194.541 294.249 178.651 295.569 163.123 293.113C147.595 290.657 132.888 284.498 120.244 275.156C107.6 265.814 97.3913 253.565 90.482 239.444C83.5728 225.323 80.1658 209.746 80.5492 194.03C80.9326 178.314 85.0952 162.921 92.6849 149.154C100.275 135.387 111.068 123.65 124.153 114.936L116.613 103.615Z" fill="#FFD885"/>
<path d="M135.132 129.498C124.507 136.574 115.742 146.105 109.578 157.285C103.415 168.465 100.035 180.965 99.7232 193.728C99.4118 206.49 102.179 219.14 107.789 230.607C113.4 242.075 121.69 252.022 131.958 259.608C142.226 267.194 154.17 272.196 166.779 274.191C179.389 276.185 192.293 275.113 204.401 271.066C216.509 267.02 227.464 260.116 236.34 250.94C245.216 241.764 251.752 230.586 255.395 218.35L240.834 214.016C237.888 223.913 232.601 232.956 225.421 240.378C218.241 247.8 209.38 253.385 199.585 256.658C189.791 259.932 179.353 260.799 169.153 259.185C158.953 257.572 149.291 253.526 140.986 247.389C132.68 241.253 125.974 233.206 121.435 223.93C116.897 214.654 114.659 204.422 114.91 194.098C115.162 183.774 117.897 173.663 122.882 164.62C127.868 155.576 134.958 147.866 143.553 142.142L135.132 129.498Z" fill="#FFD885"/>
<path d="M154.415 148.618C147.398 153.291 141.61 159.585 137.539 166.968C133.469 174.351 131.237 182.606 131.031 191.034C130.826 199.462 132.653 207.816 136.358 215.388C140.063 222.961 145.538 229.53 152.318 234.54C159.099 239.549 166.987 242.853 175.314 244.17C183.641 245.487 192.163 244.779 200.158 242.107C208.154 239.434 215.389 234.875 221.25 228.816C227.112 222.756 231.428 215.374 233.833 207.294L222.295 203.859C220.441 210.086 217.114 215.775 212.597 220.445C208.08 225.115 202.504 228.629 196.342 230.688C190.18 232.748 183.612 233.293 177.195 232.278C170.777 231.263 164.698 228.718 159.473 224.857C154.247 220.996 150.028 215.933 147.172 210.097C144.316 204.261 142.908 197.823 143.067 191.327C143.225 184.832 144.946 178.47 148.082 172.78C151.219 167.09 155.68 162.24 161.088 158.638L154.415 148.618Z" fill="#FFD885"/>
</svg>
