<svg width="240" height="240" viewBox="0 0 240 240" fill="none" xmlns="http://www.w3.org/2000/svg">
<circle cx="129.055" cy="125.554" r="64" fill="#D2FF85"/>
<ellipse cx="184.555" cy="158.554" rx="18.5" ry="19" fill="#FF85D2"/>
<path d="M43.7502 163.277C32.147 143.18 29.0027 119.296 35.009 96.8806C41.0152 74.4649 55.6801 55.3532 75.7775 43.75C95.8748 32.1468 119.758 29.0024 142.174 35.0087C164.59 41.015 183.701 55.6798 195.305 75.7772L155.143 98.9646C149.689 89.5188 140.707 82.6262 130.171 79.8033C119.636 76.9803 108.411 78.4582 98.9648 83.9117C89.519 89.3653 82.6265 98.3478 79.8035 108.883C76.9806 119.419 78.4584 130.644 83.912 140.09L43.7502 163.277Z" fill="#B285FF"/>
</svg>
