<svg width="42" height="46" viewBox="0 0 42 46" fill="none" xmlns="http://www.w3.org/2000/svg">
<path d="M29.451 19.6154V9.46154C29.451 7.2174 28.5607 5.06517 26.976 3.47833C25.3913 1.89148 23.2421 1 21.001 1C18.7599 1 16.6106 1.89148 15.026 3.47833C13.4413 5.06517 12.551 7.2174 12.551 9.46154V19.6154M38.1398 15.1184L40.9857 42.1953C41.1435 43.6958 39.9718 45 38.4643 45H3.53771C3.18215 45.0004 2.83049 44.9259 2.50557 44.7813C2.18065 44.6367 1.88974 44.4253 1.65173 44.1608C1.41372 43.8963 1.23394 43.5846 1.12407 43.246C1.0142 42.9073 0.976689 42.5494 1.01398 42.1953L3.86219 15.1184C3.92789 14.4946 4.22188 13.9173 4.68747 13.4977C5.15307 13.0781 5.7573 12.846 6.38366 12.8462H35.6183C36.9162 12.8462 38.0046 13.8277 38.1398 15.1184ZM13.396 19.6154C13.396 19.8398 13.307 20.055 13.1485 20.2137C12.9901 20.3724 12.7751 20.4615 12.551 20.4615C12.3269 20.4615 12.112 20.3724 11.9535 20.2137C11.795 20.055 11.706 19.8398 11.706 19.6154C11.706 19.391 11.795 19.1757 11.9535 19.0171C12.112 18.8584 12.3269 18.7692 12.551 18.7692C12.7751 18.7692 12.9901 18.8584 13.1485 19.0171C13.307 19.1757 13.396 19.391 13.396 19.6154ZM30.296 19.6154C30.296 19.8398 30.2069 20.055 30.0485 20.2137C29.89 20.3724 29.6751 20.4615 29.451 20.4615C29.2269 20.4615 29.0119 20.3724 28.8535 20.2137C28.695 20.055 28.606 19.8398 28.606 19.6154C28.606 19.391 28.695 19.1757 28.8535 19.0171C29.0119 18.8584 29.2269 18.7692 29.451 18.7692C29.6751 18.7692 29.89 18.8584 30.0485 19.0171C30.2069 19.1757 30.296 19.391 30.296 19.6154Z" stroke="#1B1B1B" stroke-width="2" stroke-linecap="round" stroke-linejoin="round"/>
</svg>
